<svg xmlns="http://www.w3.org/2000/svg" xmlns:xlink="http://www.w3.org/1999/xlink" aria-hidden="true" version="1.1">
  <defs>
    <symbol id="full" viewBox="0 0 458 178">
      <g class="signet" style="fill: currentColor">
        <path d="M128,56.124L89,33.608C85.292,31.467 80.708,31.467 77,33.608L38,56.124C34.297,58.27 32.007,62.237 32,66.517L32,111.55C32.007,115.83 34.297,119.796 38,121.942L77,144.459C80.708,146.6 85.292,146.6 89,144.459L128,121.942C131.703,119.796 133.993,115.83 134,111.55L134,66.517C133.993,62.237 131.703,58.27 128,56.124ZM126,111.55C126,112.977 125.236,114.3 124,115.014L85,137.531C83.764,138.244 82.236,138.244 81,137.531L42,115.014C40.764,114.3 40,112.977 40,111.55L40,66.517C40,65.089 40.764,63.766 42,63.053L81,40.536C82.236,39.822 83.764,39.822 85,40.536L124,63.053C125.236,63.766 126,65.089 126,66.517L126,111.55Z" style="fill-rule:nonzero;"/>
        <g transform="matrix(6.82083,0,0,6.82083,-714.264,-1039.32)">
            <path d="M113.947,169.618L113.947,161.028L117.187,161.028C117.757,161.028 118.193,161.055 118.494,161.11C118.915,161.18 119.269,161.314 119.554,161.512C119.839,161.709 120.069,161.985 120.243,162.341C120.416,162.696 120.503,163.087 120.503,163.513C120.503,164.243 120.271,164.861 119.806,165.367C119.341,165.873 118.501,166.126 117.287,166.126L115.083,166.126L115.083,169.618L113.947,169.618ZM115.083,165.112L117.304,165.112C118.038,165.112 118.56,164.975 118.869,164.702C119.177,164.429 119.331,164.044 119.331,163.548C119.331,163.188 119.241,162.881 119.059,162.625C118.877,162.369 118.638,162.2 118.341,162.118C118.15,162.067 117.796,162.042 117.281,162.042L115.083,162.042L115.083,165.112Z" style="fill-rule:nonzero;"/>
        </g>
      </g>
      <g transform="matrix(3.92991,0,0,3.92991,-464.994,-458.301)" style="fill: currentColor">
          <g>
              <path d="M159.114,137.33L159.114,138.158L163.29,138.158C163.086,138.95 162.834,139.61 162.522,140.138C161.766,141.41 160.494,142.502 158.706,143.414L159.246,144.122C161.166,143.102 162.522,141.878 163.338,140.462C163.65,139.91 163.902,139.214 164.106,138.398C164.958,140.87 166.614,142.778 169.086,144.122L169.626,143.426C167.274,142.202 165.678,140.438 164.838,138.158L169.254,138.158L169.254,137.33L164.334,137.33C164.478,136.514 164.574,135.602 164.646,134.57L168.906,134.57L168.906,133.73L159.426,133.73L159.426,134.57L163.77,134.57C163.71,135.59 163.614,136.514 163.47,137.33L159.114,137.33Z" style="fill-rule:nonzero;"/>
              <path d="M170.982,140.234L170.982,141.074L175.71,141.074L175.71,144.098L176.598,144.098L176.598,141.074L181.374,141.074L181.374,140.234L176.598,140.234L176.598,139.058L175.71,139.058L175.71,140.234L170.982,140.234ZM179.79,138.878C180.294,138.878 180.678,138.782 180.918,138.59C181.182,138.374 181.374,137.75 181.47,136.742L180.654,136.478C180.594,137.258 180.474,137.738 180.306,137.906C180.174,138.026 179.946,138.086 179.634,138.086L177.834,138.086C177.498,138.086 177.33,137.942 177.33,137.666L177.33,136.526C178.71,135.866 179.91,135.098 180.942,134.222L180.354,133.622C179.562,134.342 178.554,135.014 177.33,135.614L177.33,133.25L176.502,133.25L176.502,135.998C175.818,136.298 175.074,136.586 174.258,136.85L174.738,137.57C175.338,137.354 175.926,137.138 176.502,136.898L176.502,137.834C176.502,138.53 176.862,138.878 177.582,138.878L179.79,138.878ZM172.638,136.142L172.638,139.298L173.478,139.298L173.478,135.326C174.03,134.726 174.474,134.078 174.834,133.394L174.102,133.058C173.406,134.33 172.314,135.446 170.814,136.43L171.09,137.318C171.654,136.946 172.17,136.55 172.638,136.142Z" style="fill-rule:nonzero;"/>
              <path d="M186.774,141.698C185.646,142.142 184.338,142.502 182.85,142.778L182.946,143.618C184.374,143.33 185.646,142.97 186.774,142.514L186.774,141.698ZM184.794,133.07C184.326,134.498 183.774,135.77 183.15,136.874C183.042,137.018 182.922,137.126 182.802,137.186L183.006,137.954C183.678,137.858 184.338,137.762 184.986,137.642C184.338,138.794 183.798,139.622 183.342,140.102C183.246,140.198 183.114,140.27 182.97,140.33L183.186,141.098C184.314,140.942 185.49,140.654 186.714,140.246L186.714,139.466C185.874,139.766 185.034,140.006 184.206,140.174C184.902,139.322 185.79,137.882 186.846,135.854L186.078,135.554C185.85,136.01 185.634,136.442 185.418,136.85C184.89,136.946 184.35,137.03 183.81,137.102C184.41,136.178 185.01,134.942 185.598,133.382L184.794,133.07ZM187.218,133.73L187.218,134.45L189.834,134.45L189.834,135.218L187.518,135.218L187.518,135.89L189.834,135.89L189.834,136.67L186.93,136.67L186.93,137.414L193.554,137.414L193.554,136.67L190.674,136.67L190.674,135.89L192.978,135.89L192.978,135.218L190.674,135.218L190.674,134.45L193.254,134.45L193.254,133.73L190.674,133.73L190.674,133.094L189.834,133.094L189.834,133.73L187.218,133.73ZM192.822,138.254L187.686,138.254L187.686,142.058L188.514,142.058L188.514,139.01L192.006,139.01L192.006,142.022L192.822,142.022L192.822,138.254ZM189.894,139.622C189.894,140.498 189.714,141.23 189.354,141.818C188.898,142.49 187.962,143.054 186.546,143.498L187.086,144.158C188.706,143.606 189.738,142.898 190.194,142.034C190.542,141.374 190.722,140.57 190.722,139.622L189.894,139.622ZM190.878,141.974L190.446,142.622C191.406,142.982 192.342,143.486 193.254,144.122L193.722,143.426C192.858,142.85 191.91,142.37 190.878,141.974Z" style="fill-rule:nonzero;"/>
              <path d="M196.386,135.734C195.894,136.802 195.306,137.714 194.634,138.47L195.33,138.974C196.014,138.158 196.614,137.21 197.13,136.106L196.386,135.734ZM199.542,137.966L200.106,137.39C199.47,136.622 198.918,136.046 198.438,135.662L197.91,136.178C198.45,136.682 198.99,137.27 199.542,137.966ZM196.338,138.686L195.798,139.298C196.302,139.706 196.818,140.162 197.322,140.666C196.614,141.758 195.702,142.61 194.586,143.222L195.114,143.99C196.266,143.33 197.202,142.43 197.946,141.302C198.354,141.734 198.786,142.202 199.218,142.718L199.83,142.034C199.374,141.506 198.894,141.002 198.39,140.51C198.714,139.886 198.99,139.19 199.206,138.446L198.462,138.134C198.27,138.758 198.03,139.346 197.754,139.898C197.298,139.478 196.83,139.07 196.338,138.686ZM197.574,132.998L196.674,133.142C196.89,133.514 197.094,133.922 197.274,134.354L194.814,134.354L194.814,135.182L200.37,135.182L200.37,134.354L198.114,134.354C197.934,133.85 197.754,133.406 197.574,132.998ZM201.954,135.866L203.742,135.866C203.694,137.39 203.37,138.734 202.794,139.91C202.338,138.998 201.966,137.93 201.678,136.706C201.774,136.442 201.858,136.154 201.954,135.866ZM202.326,140.726C201.618,141.794 200.622,142.658 199.35,143.33L199.842,144.11C201.042,143.426 202.026,142.562 202.782,141.53C203.454,142.61 204.27,143.462 205.23,144.074L205.734,143.318C204.774,142.73 203.946,141.878 203.262,140.774C204.042,139.406 204.462,137.774 204.534,135.866L205.554,135.866L205.554,135.026L202.182,135.026C202.314,134.45 202.434,133.838 202.53,133.166L201.666,133.022C201.378,135.266 200.802,137.042 199.962,138.362L200.514,139.022C200.754,138.662 200.994,138.278 201.21,137.846C201.51,138.902 201.882,139.862 202.326,140.726Z" style="fill-rule:nonzero;"/>
              <path d="M208.014,134.294L208.014,135.098L211.218,135.098L211.218,136.394L207.15,136.394L207.15,137.222L211.974,137.222C210.438,138.182 208.662,138.974 206.634,139.586L206.982,140.366C207.99,140.054 208.95,139.694 209.874,139.286L209.334,141.206L215.238,141.206C215.166,142.058 215.07,142.598 214.926,142.814C214.758,143.018 214.374,143.126 213.75,143.126C213.282,143.126 212.754,143.102 212.154,143.066L212.43,143.822C212.862,143.87 213.366,143.894 213.93,143.894C214.746,143.894 215.286,143.738 215.562,143.426C215.838,143.102 216.018,142.106 216.102,140.45L210.354,140.45L210.75,139.214L216.702,139.214L216.702,138.434L211.566,138.434C212.214,138.062 212.838,137.654 213.438,137.222L217.41,137.222L217.41,136.394L214.47,136.394C215.334,135.626 216.114,134.774 216.81,133.838L216.174,133.358C215.766,133.91 215.298,134.45 214.794,134.966L214.794,134.294L212.082,134.294L212.082,133.058L211.218,133.058L211.218,134.294L208.014,134.294ZM213.162,136.394L212.082,136.394L212.082,135.098L214.662,135.098C214.206,135.554 213.702,135.986 213.162,136.394Z" style="fill-rule:nonzero;"/>
              <path d="M222.834,133.634L222.834,134.45L225.654,134.45L225.654,138.974L222.498,138.974L222.498,139.802L225.654,139.802L225.654,144.086L226.494,144.086L226.494,139.802L229.698,139.802L229.698,138.974L226.494,138.974L226.494,134.45L229.338,134.45L229.338,133.634L222.834,133.634ZM228.246,135.05C227.982,136.262 227.67,137.27 227.31,138.062L228.042,138.314C228.426,137.438 228.75,136.418 229.002,135.254L228.246,135.05ZM223.758,135.122L223.014,135.362C223.41,136.31 223.734,137.306 223.974,138.338L224.718,138.146C224.43,137.006 224.118,135.998 223.758,135.122ZM220.11,133.202L219.51,133.79C220.374,134.438 221.07,135.062 221.574,135.65L222.162,135.05C221.61,134.426 220.926,133.814 220.11,133.202ZM218.67,136.754L218.67,137.582L220.434,137.582L220.434,142.37C220.434,142.562 220.338,142.73 220.158,142.898L220.494,143.666C221.286,143.126 222.03,142.514 222.738,141.818L222.498,140.906C222.054,141.35 221.646,141.734 221.262,142.07L221.262,136.754L218.67,136.754Z" style="fill-rule:nonzero;"/>
          </g>
      </g>
    </symbol>
    <symbol id="signet" viewBox="0 0 160 160">
      <g style="fill: currentColor">
        <path d="M128,56.124L89,33.608C85.292,31.467 80.708,31.467 77,33.608L38,56.124C34.297,58.27 32.007,62.237 32,66.517L32,111.55C32.007,115.83 34.297,119.796 38,121.942L77,144.459C80.708,146.6 85.292,146.6 89,144.459L128,121.942C131.703,119.796 133.993,115.83 134,111.55L134,66.517C133.993,62.237 131.703,58.27 128,56.124ZM126,111.55C126,112.977 125.236,114.3 124,115.014L85,137.531C83.764,138.244 82.236,138.244 81,137.531L42,115.014C40.764,114.3 40,112.977 40,111.55L40,66.517C40,65.089 40.764,63.766 42,63.053L81,40.536C82.236,39.822 83.764,39.822 85,40.536L124,63.053C125.236,63.766 126,65.089 126,66.517L126,111.55Z" style="fill-rule:nonzero;"/>
        <g transform="matrix(6.82083,0,0,6.82083,-714.264,-1039.32)">
            <path d="M113.947,169.618L113.947,161.028L117.187,161.028C117.757,161.028 118.193,161.055 118.494,161.11C118.915,161.18 119.269,161.314 119.554,161.512C119.839,161.709 120.069,161.985 120.243,162.341C120.416,162.696 120.503,163.087 120.503,163.513C120.503,164.243 120.271,164.861 119.806,165.367C119.341,165.873 118.501,166.126 117.287,166.126L115.083,166.126L115.083,169.618L113.947,169.618ZM115.083,165.112L117.304,165.112C118.038,165.112 118.56,164.975 118.869,164.702C119.177,164.429 119.331,164.044 119.331,163.548C119.331,163.188 119.241,162.881 119.059,162.625C118.877,162.369 118.638,162.2 118.341,162.118C118.15,162.067 117.796,162.042 117.281,162.042L115.083,162.042L115.083,165.112Z" style="fill-rule:nonzero;"/>
        </g>
      </g>
    </symbol>
  </defs>
</svg>
